<svg width="31" height="36" viewBox="0 0 31 36" fill="none" xmlns="http://www.w3.org/2000/svg">
<g clip-path="url(#clip0_4561_6283)">
<path fill-rule="evenodd" clip-rule="evenodd" d="M18.4988 12.8239C19.6001 12.2748 21.0013 11.4665 22.4042 10.359C22.7 10.9733 22.7324 11.5093 22.58 11.9422C22.472 12.2472 22.2685 12.5125 22.0009 12.7236C21.7111 12.9517 21.3492 13.1178 20.9491 13.2076C20.19 13.3786 19.3037 13.2787 18.4988 12.8239ZM18.6898 18.4502L20.1475 19.2923C17.171 20.9605 16.3619 24.0582 15.4007 27.0754C14.4396 24.0582 13.6303 20.9605 10.654 19.2923L12.1117 18.4502C12.2527 18.3969 12.3733 18.3004 12.456 18.1744C12.5388 18.0484 12.5796 17.8994 12.5725 17.7488C12.439 14.9232 13.2019 13.6736 14.231 12.8891C14.6002 12.608 15.0031 12.4669 15.4007 12.4669C15.7982 12.4669 16.2012 12.608 16.5704 12.8891C17.5996 13.6736 18.3625 14.9232 18.229 17.7488C18.2219 17.8994 18.2626 18.0484 18.3454 18.1744C18.4282 18.3004 18.5487 18.3969 18.6898 18.4502ZM15.4007 0C17.0857 0.04524 18.775 0.37236 20.241 1.00872C21.2562 1.44996 22.2035 2.0328 23.0612 2.72976C23.4486 3.0444 23.7676 3.34836 24.1189 3.69828C25.0666 3.73104 26.4515 2.67828 27.0944 1.6932C25.9879 5.3208 20.9386 9.60468 17.4428 11.2439C17.4414 11.2433 17.4404 11.2424 17.4394 11.2417C16.812 10.7627 16.1064 10.5232 15.4007 10.5232C14.695 10.5232 13.9895 10.7627 13.3621 11.2417C13.361 11.2423 13.3601 11.2434 13.3586 11.2439C9.86279 9.60468 4.81355 5.3208 3.70703 1.6932C4.34987 2.67828 5.73479 3.73104 6.68243 3.69828C7.03391 3.34848 7.35287 3.0444 7.74011 2.72976C8.59787 2.0328 9.54515 1.44996 10.5604 1.00872C12.0265 0.37236 13.7158 0.04524 15.4007 0ZM12.3025 12.8239C11.2014 12.2748 9.80003 11.4665 8.39723 10.359C8.10143 10.9733 8.06903 11.5093 8.22131 11.9422C8.32943 12.2472 8.53295 12.5125 8.80043 12.7236C9.09035 12.9517 9.45227 13.1178 9.85235 13.2076C10.6115 13.3786 11.4977 13.2787 12.3025 12.8239Z" fill="white"/>
<path fill-rule="evenodd" clip-rule="evenodd" d="M23.9413 9.00368C24.7136 8.22428 25.3941 7.3616 25.9413 6.5918L26.2192 7.11488C27.114 8.90492 27.5788 10.6878 27.5788 12.6942L27.5769 15.878L27.5937 17.5285C27.6585 21.5804 28.5352 25.68 30.5212 29.4316L26.366 26.081L23.4259 30.8521L20.3371 27.9444L15.4012 35.9542L10.4654 27.9445L7.37673 30.8522L4.43661 26.0811L0.28125 29.4318C2.26725 25.6801 3.14397 21.5805 3.20889 17.5286L3.22569 15.8781L3.22377 12.6943C3.22377 10.6878 3.68853 8.90492 4.58349 7.115L4.86129 6.59192C5.40849 7.36172 6.08889 8.22428 6.86133 9.0038L6.62013 9.5048C6.15153 10.4779 5.99637 11.5659 6.36141 12.6007C6.59673 13.2672 7.02621 13.8387 7.57989 14.275C8.11749 14.6988 8.75373 14.9844 9.41985 15.1344C9.85377 15.232 10.2958 15.2722 10.735 15.2586C10.6326 15.8395 10.5878 16.442 10.5849 17.0559L6.66525 19.3198L9.68997 21.0153C9.93173 21.1509 10.1619 21.3061 10.378 21.4796C12.8718 23.7186 14.3711 30.3422 15.4014 33.5775C16.4318 30.3422 17.931 23.7186 20.4248 21.4796C20.641 21.3061 20.8711 21.1508 21.1129 21.0153L24.1376 19.3198L20.2178 17.0559C20.2149 16.442 20.1702 15.8395 20.0677 15.2586C20.5069 15.2722 20.949 15.232 21.3829 15.1344C22.049 14.9844 22.6854 14.6988 23.2228 14.275C23.7764 13.8387 24.206 13.2672 24.4412 12.6007C24.8064 11.5659 24.6511 10.478 24.1826 9.5048L23.9413 9.00368Z" fill="white"/>
</g>
<defs>
<clipPath id="clip0_4561_6283">
<rect width="30.24" height="36" fill="white" transform="translate(0.28125)"/>
</clipPath>
</defs>
</svg>
