<svg width="32" height="28" viewBox="0 0 32 28" fill="none" xmlns="http://www.w3.org/2000/svg">
<g clip-path="url(#clip0_4561_6270)">
<path d="M26.5924 4.74556C24.8027 3.9082 22.889 3.29964 20.8884 2.95312C20.6427 3.39735 20.3556 3.99484 20.1577 4.47014C18.0309 4.1503 15.9238 4.1503 13.8361 4.47014C13.6382 3.99484 13.3447 3.39735 13.0968 2.95312C11.094 3.29964 9.17812 3.91044 7.38842 4.74999C3.77857 10.2049 2.8 15.5244 3.28928 20.7683C5.68353 22.5563 8.00383 23.6424 10.285 24.3532C10.8482 23.578 11.3505 22.754 11.7833 21.8856C10.9591 21.5724 10.1697 21.1859 9.42386 20.7373C9.62174 20.5907 9.81529 20.4374 10.0023 20.2797C14.5516 22.4075 19.4944 22.4075 23.9894 20.2797C24.1786 20.4374 24.3721 20.5907 24.5678 20.7373C23.8197 21.1881 23.0282 21.5746 22.204 21.8878C22.6368 22.754 23.1369 23.5802 23.7023 24.3554C25.9857 23.6446 28.3081 22.5585 30.7024 20.7683C31.2765 14.6893 29.7216 9.41868 26.5924 4.74556ZM12.4031 17.5434C11.0374 17.5434 9.91747 16.2685 9.91747 14.7159C9.91747 13.1634 11.0135 11.8863 12.4031 11.8863C13.7927 11.8863 14.9126 13.1612 14.8886 14.7159C14.8908 16.2685 13.7927 17.5434 12.4031 17.5434ZM21.5886 17.5434C20.223 17.5434 19.103 16.2685 19.103 14.7159C19.103 13.1634 20.199 11.8863 21.5886 11.8863C22.9782 11.8863 24.0981 13.1612 24.0742 14.7159C24.0742 16.2685 22.9782 17.5434 21.5886 17.5434Z" fill="white"/>
</g>
<defs>
<clipPath id="clip0_4561_6270">
<rect width="31.5" height="27" fill="white" transform="translate(0.5 0.5)"/>
</clipPath>
</defs>
</svg>
