<svg width="26" height="26" viewBox="0 0 26 26" fill="none" xmlns="http://www.w3.org/2000/svg">
<g clip-path="url(#clip0_4561_6266)">
<path d="M25.8571 5.04381C24.8929 5.44559 23.9286 5.76702 22.8036 5.84738C23.9286 5.20452 24.7321 4.15988 25.1339 2.95452C24.0893 3.59738 22.9643 3.99916 21.7589 4.24023C20.7946 3.19559 19.4286 2.55273 17.9821 2.55273C15.0893 2.55273 12.6786 4.88309 12.6786 7.85631C12.6786 8.25809 12.7589 8.65988 12.8393 9.06166C8.41964 8.82059 4.5625 6.73131 1.91071 3.51702C1.42857 4.32059 1.1875 5.20452 1.1875 6.16881C1.1875 8.01702 2.15179 9.62416 3.51786 10.5884C2.63393 10.5884 1.83036 10.3474 1.10714 9.94559V10.0259C1.10714 12.5974 2.95536 14.6867 5.36607 15.1688C4.88393 15.2492 4.48214 15.3295 4 15.3295C3.67857 15.3295 3.35714 15.3295 3.03571 15.2492C3.67857 17.3384 5.6875 18.8652 7.9375 18.9456C6.16964 20.392 3.83929 21.1956 1.34821 21.1956C0.946429 21.1956 0.464286 21.1956 0.0625 21.1152C2.47321 22.5617 5.28572 23.4456 8.25893 23.4456C17.9821 23.4456 23.2857 15.4099 23.2857 8.41881C23.2857 8.17773 23.2857 7.93666 23.2857 7.77595C24.25 6.97238 25.1339 6.08845 25.8571 5.04381Z" fill="white"/>
</g>
<defs>
<clipPath id="clip0_4561_6266">
<rect width="25.7143" height="25.7143" fill="white" transform="translate(0.144531 0.140625)"/>
</clipPath>
</defs>
</svg>
