<svg width="26" height="22" viewBox="0 0 26 22" fill="none" xmlns="http://www.w3.org/2000/svg">
<path d="M25.8065 0.85011C25.7858 0.755213 25.7403 0.667499 25.6747 0.595924C25.609 0.524348 25.5256 0.471474 25.4328 0.442699C25.0952 0.376107 24.7459 0.401078 24.4211 0.51502C24.4211 0.51502 1.89139 8.61261 0.604868 9.5094C0.326833 9.70225 0.234422 9.81395 0.188618 9.94654C-0.033971 10.5846 0.658708 10.8658 0.658708 10.8658L6.46532 12.7582C6.5634 12.7752 6.66408 12.7691 6.75942 12.7406C8.08049 11.9064 20.0497 4.34806 20.7416 4.09413C20.85 4.06118 20.9304 4.09413 20.9127 4.17448C20.6299 5.14359 10.2935 14.3292 10.2365 14.3855C10.2087 14.4082 10.1869 14.4374 10.1729 14.4704C10.159 14.5034 10.1532 14.5394 10.1561 14.5751L9.61612 20.2411C9.61612 20.2411 9.38951 22.0089 11.1542 20.2411C12.4053 18.9883 13.6059 17.9517 14.2077 17.4479C16.2046 18.826 18.3534 20.3504 19.2799 21.1443C19.4353 21.2953 19.6196 21.4134 19.8218 21.4916C20.0239 21.5697 20.2397 21.6063 20.4563 21.5991C21.3402 21.5654 21.5813 20.5987 21.5813 20.5987C21.5813 20.5987 25.6859 4.08127 25.8242 1.86743C25.837 1.65047 25.8555 1.51145 25.8571 1.36279C25.8644 1.19036 25.8474 1.01777 25.8065 0.85011Z" fill="white"/>
</svg>
